<svg width="16px" height="16px" viewBox="0 0 32.000000 32.000000">
<g transform="translate(0.000000,32.000000) scale(0.100000,-0.100000)"
fill="#000000" stroke="none">
<path d="M74 270 c-16 -6 -29 -31 -48 -87 -38 -114 -33 -153 20 -153 27 0 31
6 65 89 15 36 32 67 38 69 7 2 3 -17 -9 -47 -26 -68 -26 -81 5 -81 21 0 31 12
61 71 19 39 38 69 40 66 3 -3 -4 -23 -15 -46 -27 -52 -28 -107 -2 -121 11 -5
36 -10 55 -10 43 0 50 25 11 40 -31 12 -31 21 0 104 33 88 26 101 -56 110 -39
4 -67 2 -75 -5 -9 -7 -19 -7 -33 0 -23 13 -28 13 -57 1z"/>
</g>
</svg>
